{"title":"Saving.Private.Ryan[1998]720p.5.1.BluRay.x264-r3mnants","uid":8956105,"size":1713592146,"categoryP":"video","categoryS":"hd___movies","magnet":"?xt=urn:btih:2c8e370c0306872114d251b932484fbd6250de33&amp;dn=Saving.Private.Ryan%5B1998%5D720p.5.1.BluRay.x264-r3mnants&amp;tr=udp%3A%2F%2Ftracker.openbittorrent.com%3A80&amp;tr=udp%3A%2F%2Fopen.demonii.com%3A1337&amp;tr=udp%3A%2F%2Ftracker.coppersurfer.tk%3A6969&amp;tr=udp%3A%2F%2Fexodus.desync.com%3A6969","seeders":22,"leechers":2,"uploader":"nikhilbh","files":3,"time":1379998334,"description":"Saving Private Ryan BluRay 720p\n\nNote:\nThis movie deserves every little bit of 720p with 5.1 surround sound. 1080p will be coming some time in a great quality and small file size.\nLeaving a comment goes a long way!\nBest viewed with MPC.\nEnjoy!\n\nGeneral\nFormat                                   : MPEG-4\nFormat profile                           : Base Media\nCodec ID                                 : isom\nFile size                                : 1.59 GiB\nDuration                                 : 2h 49mn\nOverall bit rate mode                    : Variable\nOverall bit rate                         : 1 346 Kbps\n\nVideo\nID                                       : 1\nFormat                                   : AVC\nFormat/Info                              : Advanced Video Codec\nFormat profile                           : &lt;a class=&quot;__cf_email__&quot; href=&quot;/cdn-cgi/l/email-protection&quot; data-cfemail=&quot;064e6f616e464a322836&quot;&gt;[email&amp;#160;protected]&lt;/a&gt;&lt;script cf-hash='f9e31' type=&quot;text/javascript&quot;&gt;\n/* &lt;![CDATA[ */!function(){try{var t=&quot;currentScript&quot;in document?document.currentScript:function(){for(var t=document.getElementsByTagName(&quot;script&quot;),e=t.length;e--;)if(t[e].getAttribute(&quot;cf-hash&quot;))return t[e]}();if(t&amp;&amp;t.previousSibling){var e,r,n,i,c=t.previousSibling,a=c.getAttribute(&quot;data-cfemail&quot;);if(a){for(e=&quot;&quot;,r=parseInt(a.substr(0,2),16),n=2;a.length-n;n+=2)i=parseInt(a.substr(n,2),16)^r,e+=String.fromCharCode(i);e=document.createTextNode(e),c.parentNode.replaceChild(e,c)}}}catch(u){}}();/* ]]&gt; */&lt;/script&gt;\nFormat settings, CABAC                   : Yes\nFormat settings, ReFrames                : 3 frames\nCodec ID                                 : avc1\nCodec ID/Info                            : Advanced Video Coding\nDuration                                 : 2h 49mn\nBit rate mode                            : Variable\nBit rate                                 : 1 024 Kbps\nMaximum bit rate                         : 25.0 Mbps\nWidth                                    : 1 280 pixels\nHeight                                   : 720 pixels\nDisplay aspect ratio                     : 16:9\nFrame rate mode                          : Constant\nFrame rate                               : 23.976 fps\nColor space                              : YUV\nChroma subsampling                       : 4:2:0\nBit depth                                : 8 bits\nScan type                                : Progressive\nBits/(Pixel*Frame)                       : 0.046\nStream size                              : 1.21 GiB (76%)\nTitle                                    : Saving Private Ryan 1998 720p BluRay x264-r3mnants\nWriting library                          : x264 core 129 r2245 bc13772\nEncoding settings                        : cabac=1 // deblock=1:0:0 / analyse=0x3:0x113 / me=hex / subme=7 / psy=1 / psy_rd=1.00:0.00 // me_range=16 / chroma_me=1 / trellis=1 / 8x8dct=1 / cqm=0 / deadzone=21,11 / fast_pskip=1 / chroma_qp_offset=-2 / threads=6 / lookahead_threads=1 / sliced_threads=0 / nr=0 / decimate=1 / interlaced=0 / bluray_compat=0 / constrained_intra=0 / bframes=3 / b_pyramid=0 / b_adapt=1 / b_bias=0 / direct=1 / weightb=1 / open_gop=0 / weightp=2 / keyint=240 / keyint_min=24 / scenecut=40 / intra_refresh=0 / rc_lookahead=40 / rc=2pass / mbtree=1 / bitrate=1024 / ratetol=1.0 / qcomp=0.60 / qpmin=0 / qpmax=69 / qpstep=4 / cplxblur=20.0 / qblur=0.5 / vbv_maxrate=25000 / vbv_bufsize=25000 / nal_hrd=vbr / ip_ratio=1.40 / aq=1:1.00\n\nAudio\nID                                       : 2\nFormat                                   : AAC\nFormat/Info                              : Advanced Audio Codec\nFormat profile                           : LC\nCodec ID                                 : 40\nDuration                                 : 2h 49mn\nBit rate mode                            : Variable\nBit rate                                 : 320 Kbps\nMaximum bit rate                         : 328 Kbps\nChannel(s)                               : 6 channels\nChannel positions                        : Front: L C R, Side: L R, LFE\nSampling rate                            : 48.0 KHz\nCompression mode                         : Lossy\nStream size                              : 388 MiB (24%)\nLanguage                                 : English\n\nMenu\n00:00:00.000                             : Memorial\n00:04:31.438                             : Omaha Beach\n00:13:48.161                             : Rallying\n00:18:57.887                             : Breakthrough\n00:26:54.488                             : Letters\n00:36:12.796                             : A Public Relations Mission\n00:45:48.537                             : Pool\n00:57:40.457                             : Private James Ryan\n01:05:27.340                             : Choices\n01:13:46.839                             : FUBAR\n01:17:43.075                             : Dog-Tags\n01:24:06.083                             : Radar Station\n01:35:30.725                             : Big Mystery\n01:46:44.189                             : One Decent Thing\n01:59:36.544                             : Paif\n02:07:26.597                             : Born Lucky\n02:17:12.641                             : Ammo\n02:26:55.432                             : The Alamo\n02:32:43.780                             : The Bridge\n02:42:39.958                             : Duty Roster","torrent":{"xt":"urn:btih:2c8e370c0306872114d251b932484fbd6250de33","amp;dn":"Saving.Private.Ryan%5B1998%5D720p.5.1.BluRay.x264-r3mnants","amp;tr":["udp%3A%2F%2Ftracker.openbittorrent.com%3A80","udp%3A%2F%2Fopen.demonii.com%3A1337","udp%3A%2F%2Ftracker.coppersurfer.tk%3A6969","udp%3A%2F%2Fexodus.desync.com%3A6969"],"infoHash":"2c8e370c0306872114d251b932484fbd6250de33","infoHashBuffer":{"type":"Buffer","data":[44,142,55,12,3,6,135,33,20,210,81,185,50,72,79,189,98,80,222,51]},"announce":[],"urlList":[]}}